<?xml version="1.0" encoding="utf-8"?>
<!-- Generator: Adobe Illustrator 26.0.3, SVG Export Plug-In . SVG Version: 6.00 Build 0)  -->
<svg version="1.1" id="Layer_1" xmlns="http://www.w3.org/2000/svg" xmlns:xlink="http://www.w3.org/1999/xlink" x="0px" y="0px"
	 viewBox="0 0 339.76 118.03" style="enable-background:new 0 0 339.76 118.03;" xml:space="preserve">
<style type="text/css">
	.st0{fill:none;stroke:#515151;stroke-width:4.0001;stroke-miterlimit:10.0003;}
	.st1{fill:none;stroke:#515151;stroke-width:4;stroke-miterlimit:10;}
	.st2{fill:none;stroke:#515151;stroke-width:4;stroke-linecap:round;stroke-linejoin:round;stroke-miterlimit:10;}
	.st3{fill:none;stroke:#515151;stroke-width:4;stroke-linecap:round;stroke-miterlimit:10;}
	.st4{fill:#515151;stroke:#515151;stroke-width:4;stroke-linecap:round;stroke-linejoin:round;stroke-miterlimit:10;}
</style>
<g>
	<ellipse class="st0" cx="138.22" cy="28.17" rx="26.16" ry="26.16"/>
	<circle class="st1" cx="202.08" cy="28.17" r="26.16"/>
	<path class="st1" d="M164.37,28.17c2.07,0,3.71-1.77,5.78-1.77c1.78,0,4,1.77,5.78,1.77"/>
	<path class="st2" d="M112.05,28.17c-2.92,0-5.84,0-8.76,0"/>
	<path class="st2" d="M236.99,28.17c-2.92,0-5.84,0-8.76,0"/>
	<path class="st3" d="M202.91,11.14c9.76,0,17.66,8.16,17.66,18.24"/>
	<path class="st4" d="M337.76,64.48L320.54,36.4L169.88,91.49L19.22,36.4L2,64.48l149.43,33.03c0,10.23,8.29,18.52,18.52,18.52
		c10.23,0,18.52-8.29,18.52-18.52h-0.13L337.76,64.48z"/>
	<path class="st2" d="M169.88,91.49L19.22,36.4l20.85-9.77c4.89-2.29,10.54-2.3,15.43-0.04l114.64,53.07L169.88,91.49z"/>
	<path class="st2" d="M170.14,91.49L320.8,36.4l-20.85-9.77c-4.89-2.29-10.54-2.3-15.43-0.04L169.88,79.67L170.14,91.49z"/>
	<path class="st3" d="M204.2,19.7c4.36,0,7.88,3.64,7.88,8.15"/>
</g>
</svg>
